<svg width="167" height="38" viewBox="0 0 167 38" fill="none" xmlns="http://www.w3.org/2000/svg">
<path d="M58.0739 18.5545L57.955 18.5139L57.5914 18.3779L57.955 18.2188L58.0623 18.1746C58.6695 17.9225 59.1253 17.5065 59.4201 16.936C59.7209 16.3527 59.8735 15.5823 59.8735 14.6447V13.8906C59.8735 12.473 59.5355 11.4122 58.87 10.7406C58.2045 10.069 57.1193 9.72742 55.6437 9.72742H51.4501C51.3859 9.72742 51.3335 9.7797 51.3335 9.84361V28.1195C51.3335 28.1834 51.3859 28.2357 51.4501 28.2357H55.8326C57.2557 28.2357 58.3455 27.8674 59.074 27.1423C59.8013 26.4161 60.1708 25.3379 60.1708 23.9389V22.3227C60.1708 20.2672 59.4854 19.0344 58.0739 18.5545ZM53.956 12.0733H55.5633C56.1391 12.0733 56.5715 12.25 56.8478 12.5974C57.1193 12.9378 57.251 13.4572 57.251 14.1869V15.2373C57.251 15.9995 57.0844 16.5572 56.7557 16.8942C56.4258 17.2334 55.934 17.4054 55.2929 17.4054H53.956V12.0733ZM57.5483 23.8576C57.5483 24.5919 57.4096 25.1008 57.1252 25.4157C56.8396 25.7306 56.4048 25.8909 55.8326 25.8909H53.956V19.7502H55.4549C56.1881 19.7502 56.7277 19.9372 57.0576 20.3067C57.3874 20.6762 57.5483 21.3002 57.5483 22.2146V23.8576Z" fill="white"/>
<path d="M65.5161 25.8908V9.84349C65.5161 9.77958 65.4636 9.72729 65.3995 9.72729H63.0101C62.946 9.72729 62.8936 9.77958 62.8936 9.84349V28.1194C62.8936 28.1833 62.946 28.2356 63.0101 28.2356H70.2902C70.3543 28.2356 70.4067 28.1833 70.4067 28.1194V26.007C70.4067 25.9431 70.3543 25.8908 70.2902 25.8908H65.5161Z" fill="white"/>
<path d="M79.2453 9.72729C79.1812 9.72729 79.1288 9.77958 79.1288 9.84349V23.9213C79.1288 24.6092 78.9819 25.1205 78.6917 25.4388C78.3968 25.763 77.976 25.928 77.441 25.928C76.9061 25.928 76.4841 25.763 76.1892 25.4388C75.9002 25.1205 75.7521 24.6104 75.7521 23.9213V9.84349C75.7521 9.77958 75.6997 9.72729 75.6356 9.72729H73.2462C73.1821 9.72729 73.1296 9.77958 73.1296 9.84349V23.7064C73.1296 25.1797 73.4956 26.323 74.2183 27.1027C74.5773 27.4908 75.0237 27.7836 75.5528 27.9788C76.082 28.174 76.6939 28.2728 77.3863 28.2728C78.7709 28.2728 79.8363 27.8789 80.5554 27.1027C81.2769 26.323 81.6429 25.1797 81.6429 23.7064V9.84349C81.6429 9.77958 81.5904 9.72729 81.5263 9.72729H79.2453Z" fill="white"/>
<path d="M92.1225 11.957V9.84349C92.1225 9.77958 92.0701 9.72729 92.006 9.72729H84.4823C84.4182 9.72729 84.3657 9.77958 84.3657 9.84349V28.1194C84.3657 28.1833 84.4182 28.2356 84.4823 28.2356H92.006C92.0701 28.2356 92.1225 28.1833 92.1225 28.1194V26.007C92.1225 25.9431 92.0701 25.8908 92.006 25.8908H86.9882V19.75H90.9523C91.0164 19.75 91.0689 19.6978 91.0689 19.6339V17.5215C91.0689 17.4576 91.0164 17.4053 90.9523 17.4053H86.9882V12.0732H92.006C92.0701 12.0732 92.1225 12.0209 92.1225 11.957Z" fill="white"/>
<path d="M101.586 18.5544L101.468 18.5137L101.118 18.3673L101.468 18.2174L101.575 18.1733C102.181 17.9211 102.638 17.5051 102.933 16.9346C103.234 16.3514 103.387 15.581 103.387 14.6433V13.8892C103.387 12.4717 103.049 11.4109 102.383 10.7393C101.717 10.0677 100.632 9.72607 99.1567 9.72607H94.9619C94.8978 9.72607 94.8453 9.77836 94.8453 9.84227V28.1182C94.8453 28.1821 94.8978 28.2343 94.9619 28.2343H99.3456C100.768 28.2343 101.859 27.866 102.586 27.141C103.314 26.4148 103.684 25.3365 103.684 23.9376V22.3213C103.684 20.2659 102.997 19.0331 101.586 18.5532V18.5544ZM97.4678 12.0732H99.0751C99.6509 12.0732 100.083 12.2498 100.361 12.5972C100.631 12.9376 100.763 13.457 100.763 14.1867V15.2371C100.763 15.9993 100.597 16.557 100.269 16.894C99.9388 17.2333 99.4458 17.4052 98.8047 17.4052H97.4678V12.0732ZM101.061 23.8574C101.061 24.5917 100.923 25.1006 100.637 25.4155C100.351 25.7304 99.9167 25.8907 99.3456 25.8907H97.4678V19.75H98.9668C99.7011 19.75 100.24 19.9371 100.571 20.3065C100.9 20.676 101.061 21.3 101.061 22.2144V23.8574Z" fill="white"/>
<path d="M106.407 9.84349V28.1194C106.407 28.1833 106.459 28.2356 106.523 28.2356H108.914C108.978 28.2356 109.03 28.1833 109.03 28.1194V9.84349C109.03 9.77958 108.978 9.72729 108.914 9.72729H106.523C106.459 9.72729 106.407 9.77958 106.407 9.84349Z" fill="white"/>
<path d="M120.295 27.4455C120.258 27.1108 120.239 26.6658 120.239 26.1209V22.8071C120.239 21.723 120.095 20.8504 119.809 20.2113C119.531 19.5897 119.068 19.1888 118.392 18.9867L118.267 18.9495L117.918 18.7938L118.267 18.6485L118.377 18.6044C119.612 18.1082 120.213 16.9452 120.213 15.0489V13.8905C120.213 12.4729 119.876 11.4121 119.209 10.7405C118.545 10.0689 117.458 9.72729 115.983 9.72729H111.87C111.806 9.72729 111.753 9.77958 111.753 9.84349V28.1194C111.753 28.1833 111.806 28.2356 111.87 28.2356H114.26C114.324 28.2356 114.377 28.1833 114.377 28.1194V20.1544H115.577C116.314 20.1544 116.845 20.3484 117.159 20.7307C117.468 21.1072 117.617 21.7334 117.617 22.6456V26.093C117.617 26.7843 117.634 27.2665 117.669 27.5245C117.696 27.722 117.744 27.9335 117.812 28.1531C117.827 28.2019 117.872 28.2356 117.924 28.2356H120.319C120.398 28.2356 120.453 28.1577 120.429 28.0822C120.363 27.8719 120.319 27.6581 120.295 27.4455ZM117.59 15.6415C117.59 16.4037 117.423 16.9614 117.095 17.2984C116.765 17.6377 116.273 17.8096 115.632 17.8096H114.377V12.0732H115.902C116.478 12.0732 116.911 12.2498 117.188 12.5972C117.458 12.9377 117.59 13.4571 117.59 14.1868V15.6415Z" fill="white"/>
<path d="M130.719 10.8578C130.018 10.1084 128.942 9.72729 127.523 9.72729H123.274C123.21 9.72729 123.158 9.77958 123.158 9.84349V28.1194C123.158 28.1833 123.21 28.2356 123.274 28.2356H127.523C128.942 28.2356 130.018 27.8556 130.719 27.1062C131.423 26.3533 131.779 25.2239 131.779 23.7494V14.2135C131.779 12.7402 131.423 11.6108 130.719 10.8578ZM129.157 23.8842C129.157 24.5732 129.01 25.0833 128.72 25.4028C128.426 25.7258 128.005 25.8908 127.469 25.8908H125.781V12.0732H127.469C128.004 12.0732 128.425 12.237 128.72 12.5612C129.01 12.8808 129.157 13.392 129.157 14.0787V23.8842Z" fill="white"/>
<path d="M148.152 18.4772L148.034 18.4365L147.681 18.3075L148.034 18.1414L148.142 18.0972C148.748 17.8451 149.205 17.4279 149.499 16.8586C149.8 16.2753 149.953 15.505 149.953 14.5673V13.8132C149.953 12.3956 149.615 11.3348 148.949 10.6632C148.284 9.99163 147.199 9.65002 145.723 9.65002H141.528C141.464 9.65002 141.412 9.70231 141.412 9.76622V28.0421C141.412 28.106 141.464 28.1583 141.528 28.1583H145.912C147.334 28.1583 148.425 27.79 149.152 27.0649C149.881 26.3387 150.25 25.2605 150.25 23.8615V22.2453C150.25 20.1898 149.564 18.957 148.152 18.4772ZM144.034 11.9959H145.641C146.217 11.9959 146.65 12.1726 146.927 12.52C147.197 12.8604 147.329 13.3798 147.329 14.1095V15.1599C147.329 15.9221 147.162 16.4798 146.835 16.8168C146.505 17.156 146.012 17.328 145.371 17.328H144.034V11.9959ZM147.626 23.7802C147.626 24.5145 147.489 25.0234 147.203 25.3383C146.918 25.6532 146.483 25.8135 145.912 25.8135H144.034V19.6728H145.533C146.267 19.6728 146.806 19.8598 147.137 20.2293C147.467 20.5988 147.626 21.2228 147.626 22.1372V23.7802ZM153.091 9.76622V28.0421C153.091 28.106 153.144 28.1583 153.208 28.1583H155.597C155.661 28.1583 155.714 28.106 155.714 28.0421V9.76622C155.714 9.70231 155.661 9.65002 155.597 9.65002H153.208C153.144 9.65002 153.091 9.70231 153.091 9.76622ZM166.682 9.65002H158.835C158.77 9.65002 158.718 9.70231 158.718 9.76622V11.8798C158.718 11.9437 158.77 11.9959 158.835 11.9959H164.046L158.456 25.7066C158.45 25.7206 158.448 25.7357 158.448 25.7508V28.0421C158.448 28.106 158.5 28.1583 158.564 28.1583H166.682C166.746 28.1583 166.799 28.106 166.799 28.0421V25.9297C166.799 25.8658 166.746 25.8135 166.682 25.8135H161.202L166.791 12.1028C166.796 12.0889 166.799 12.0738 166.799 12.0587V9.76622C166.799 9.70231 166.746 9.65002 166.682 9.65002Z" fill="white"/>
<path d="M8.6695 0.400064L9.11737 5.73036C9.12223 5.79015 9.15743 5.84517 9.21083 5.87507L19.7838 11.8703C19.9222 11.948 20.0618 11.7722 19.9513 11.6586L8.82971 0.328308C8.76903 0.266119 8.661 0.313957 8.66829 0.400064H8.6695Z" fill="url(#paint0_linear_1_263)"/>
<path d="M10.0022 8.08037L12.017 11.1611C12.0425 11.2006 12.0826 11.2281 12.1275 11.24L18.3783 12.8259C18.5276 12.8641 18.6101 12.662 18.4766 12.5867L10.143 7.93447C10.0483 7.88185 9.94514 7.98948 10.0034 8.07918L10.0022 8.08037Z" fill="url(#paint1_linear_1_263)"/>
<path d="M19.1273 17.5343C19.029 17.392 19.0181 17.209 19.0982 17.0571L20.261 14.8649C20.318 14.7585 20.2573 14.6281 20.1384 14.6006L3.29756 10.678C3.16647 10.6481 3.09607 10.8239 3.21259 10.8896L21.2028 20.9941C21.3327 21.0671 21.4723 20.9176 21.3885 20.7956L19.1273 17.5343Z" fill="url(#paint2_linear_1_263)"/>
<path d="M0.0263853 10.9435L3.89583 15.5873C3.91889 15.6148 3.94802 15.6339 3.98201 15.6459L14.2843 19.0017C14.4324 19.0495 14.5247 18.8462 14.3887 18.7697L0.169608 10.7761C0.0603704 10.7151 -0.0525086 10.8478 0.0263853 10.9435Z" fill="url(#paint3_linear_1_263)"/>
<path d="M26.3442 11.2125L21.9346 14.6736C21.9152 14.6891 21.8982 14.7083 21.8873 14.7298L20.568 17.1324C20.5352 17.1922 20.5388 17.2652 20.5765 17.3214L23.4555 21.6016C23.498 21.665 23.5756 21.6961 23.6509 21.6794L27.5422 20.8518C27.6369 20.8315 27.7 20.7442 27.6878 20.6509L26.5785 11.307C26.5651 11.1958 26.4328 11.142 26.343 11.2113L26.3442 11.2125Z" fill="url(#paint4_linear_1_263)"/>
<path d="M27.9319 12.2099L28.9867 20.7836C28.9952 20.8553 29.0462 20.9163 29.1178 20.9379L30.8279 21.4569C30.9445 21.4928 31.0634 21.4103 31.0695 21.2895L31.3644 15.4258C31.3669 15.3744 31.3474 15.3241 31.311 15.2871L28.1225 12.119C28.0472 12.0449 27.9198 12.1059 27.9331 12.2099H27.9319Z" fill="url(#paint5_linear_1_263)"/>
<path d="M28.6539 22.1147C28.4634 22.0537 28.2595 22.043 28.0641 22.0836L24.5988 22.7892C24.4677 22.8155 24.407 22.9662 24.4835 23.075L26.8175 26.3675C26.8867 26.4643 27.0287 26.4739 27.1088 26.3854L30.3156 22.9136C30.4066 22.8143 30.3641 22.6553 30.2343 22.6146L28.6539 22.1147Z" fill="url(#paint6_linear_1_263)"/>
<path d="M23.1799 23.7723L18.0688 30.814C17.9765 30.9419 17.9268 31.095 17.9292 31.2517L17.9486 33.1102C17.9498 33.262 18.127 33.347 18.2496 33.2537L25.8028 27.506C25.8805 27.4474 25.8987 27.3386 25.8441 27.2584L23.487 23.7783C23.4141 23.6706 23.2551 23.6682 23.1799 23.7735V23.7723Z" fill="url(#paint7_linear_1_263)"/>
<path d="M18.984 21.2596C18.8797 21.2058 18.7522 21.2596 18.7182 21.3708L17.8383 24.3128C17.7776 24.5149 17.7509 24.723 17.7594 24.9335L17.905 28.4269C17.9111 28.5656 18.0919 28.617 18.172 28.5034L22.0111 23.0463C22.0755 22.9554 22.0439 22.8287 21.9444 22.7784L18.9853 21.2608L18.984 21.2596Z" fill="url(#paint8_linear_1_263)"/>
<path d="M16.2725 29.3059L14.3025 35.0237C14.2916 35.0547 14.2892 35.087 14.2965 35.1193L14.7917 37.5519C14.8269 37.7229 15.0611 37.7552 15.1412 37.5997L16.7021 34.5776C16.7155 34.5513 16.7228 34.5214 16.7228 34.4915L16.6378 29.3633C16.6342 29.1564 16.3417 29.1109 16.2737 29.3071L16.2725 29.3059Z" fill="url(#paint9_linear_1_263)"/>
<path d="M26.2313 6.48616L27.3541 9.11962C27.3844 9.19018 27.456 9.23562 27.5337 9.23203L38.5691 8.78475C38.6966 8.77997 38.7099 8.59819 38.5849 8.57546L26.3685 6.31753C26.2702 6.29959 26.1913 6.39527 26.2301 6.48616H26.2313Z" fill="url(#paint10_linear_1_263)"/>
<path d="M28.4658 10.6851L31.601 13.779C31.6956 13.8723 31.8558 13.84 31.9068 13.718L33.2043 10.5619C33.2553 10.4376 33.1594 10.3036 33.0235 10.3084L28.5435 10.4902C28.4428 10.4938 28.3954 10.6146 28.467 10.6839L28.4658 10.6851Z" fill="url(#paint11_linear_1_263)"/>
<path d="M24.8695 7.29704L22.5427 12.2602C22.5051 12.3415 22.6034 12.418 22.675 12.3618L25.9922 9.74154C26.0566 9.69011 26.0796 9.60401 26.0481 9.52866L25.1244 7.30302C25.0783 7.1918 24.9205 7.18821 24.8695 7.29704Z" fill="url(#paint12_linear_1_263)"/>
<path d="M30.6432 5.00203C30.5231 4.91234 30.3714 4.87885 30.2245 4.91234L28.1211 5.29025C28.0082 5.31537 28.0118 5.47562 28.1259 5.49595L31.8667 6.18003C31.9772 6.20036 32.0391 6.06044 31.9505 5.99346L30.642 5.00203H30.6432Z" fill="url(#paint13_linear_1_263)"/>
<defs>
<linearGradient id="paint0_linear_1_263" x1="4.59133e-07" y1="19" x2="32.1508" y2="33.4798" gradientUnits="userSpaceOnUse">
<stop stop-color="#CCF7FF"/>
<stop offset="1" stop-color="#67C3D2"/>
</linearGradient>
<linearGradient id="paint1_linear_1_263" x1="4.59133e-07" y1="19" x2="32.1508" y2="33.4798" gradientUnits="userSpaceOnUse">
<stop stop-color="#CCF7FF"/>
<stop offset="1" stop-color="#67C3D2"/>
</linearGradient>
<linearGradient id="paint2_linear_1_263" x1="4.59133e-07" y1="19" x2="32.1508" y2="33.4798" gradientUnits="userSpaceOnUse">
<stop stop-color="#CCF7FF"/>
<stop offset="1" stop-color="#67C3D2"/>
</linearGradient>
<linearGradient id="paint3_linear_1_263" x1="4.59133e-07" y1="19" x2="32.1508" y2="33.4798" gradientUnits="userSpaceOnUse">
<stop stop-color="#CCF7FF"/>
<stop offset="1" stop-color="#67C3D2"/>
</linearGradient>
<linearGradient id="paint4_linear_1_263" x1="4.59133e-07" y1="19" x2="32.1508" y2="33.4798" gradientUnits="userSpaceOnUse">
<stop stop-color="#CCF7FF"/>
<stop offset="1" stop-color="#67C3D2"/>
</linearGradient>
<linearGradient id="paint5_linear_1_263" x1="4.59133e-07" y1="19" x2="32.1508" y2="33.4798" gradientUnits="userSpaceOnUse">
<stop stop-color="#CCF7FF"/>
<stop offset="1" stop-color="#67C3D2"/>
</linearGradient>
<linearGradient id="paint6_linear_1_263" x1="4.59133e-07" y1="19" x2="32.1508" y2="33.4798" gradientUnits="userSpaceOnUse">
<stop stop-color="#CCF7FF"/>
<stop offset="1" stop-color="#67C3D2"/>
</linearGradient>
<linearGradient id="paint7_linear_1_263" x1="4.59133e-07" y1="19" x2="32.1508" y2="33.4798" gradientUnits="userSpaceOnUse">
<stop stop-color="#CCF7FF"/>
<stop offset="1" stop-color="#67C3D2"/>
</linearGradient>
<linearGradient id="paint8_linear_1_263" x1="4.59133e-07" y1="19" x2="32.1508" y2="33.4798" gradientUnits="userSpaceOnUse">
<stop stop-color="#CCF7FF"/>
<stop offset="1" stop-color="#67C3D2"/>
</linearGradient>
<linearGradient id="paint9_linear_1_263" x1="4.59133e-07" y1="19" x2="32.1508" y2="33.4798" gradientUnits="userSpaceOnUse">
<stop stop-color="#CCF7FF"/>
<stop offset="1" stop-color="#67C3D2"/>
</linearGradient>
<linearGradient id="paint10_linear_1_263" x1="4.59133e-07" y1="19" x2="32.1508" y2="33.4798" gradientUnits="userSpaceOnUse">
<stop stop-color="#CCF7FF"/>
<stop offset="1" stop-color="#67C3D2"/>
</linearGradient>
<linearGradient id="paint11_linear_1_263" x1="4.59133e-07" y1="19" x2="32.1508" y2="33.4798" gradientUnits="userSpaceOnUse">
<stop stop-color="#CCF7FF"/>
<stop offset="1" stop-color="#67C3D2"/>
</linearGradient>
<linearGradient id="paint12_linear_1_263" x1="4.59133e-07" y1="19" x2="32.1508" y2="33.4798" gradientUnits="userSpaceOnUse">
<stop stop-color="#CCF7FF"/>
<stop offset="1" stop-color="#67C3D2"/>
</linearGradient>
<linearGradient id="paint13_linear_1_263" x1="4.59133e-07" y1="19" x2="32.1508" y2="33.4798" gradientUnits="userSpaceOnUse">
<stop stop-color="#CCF7FF"/>
<stop offset="1" stop-color="#67C3D2"/>
</linearGradient>
</defs>
</svg>
