<svg xmlns="http://www.w3.org/2000/svg" width="1441" height="1996" fill="none"><g stroke="#67C3D2" stroke-dasharray="3 8" stroke-linecap="round" opacity=".5"><path d="M-1151.07 2032 25.839-34M-1008.28 2032 168.629-34M-865.486 2032 311.42-34M-722.696 2032 454.21-34M-579.905 2032 597.001-34M-437.115 2032 739.791-34M-294.324 2032 882.582-34M-151.534 2032 1025.37-34M-8.744 2032 1168.16-34M134.047 2032 1310.95-34M276.838 2032 1453.74-34M419.628 2032 1596.53-34M562.418 2032 1739.32-34M705.209 2032 1882.12-34M848 2032 2024.91-34M990.79 2032 2167.7-34M1133.58 2032 2310.49-34M1276.37 2032 2453.28-34M1419.16 2032 2596.07-34"/></g><g stroke="#67C3D2" stroke-dasharray="3 8" stroke-linecap="round" opacity=".5"><path d="M-1151.07-34 25.839 2032M-1008.28-34 168.629 2032M-865.486-34 311.42 2032M-722.696-34 454.21 2032M-579.905-34 597.001 2032M-437.115-34 739.791 2032M-294.324-34 882.582 2032M-151.534-34 1025.37 2032M-8.744-34 1168.16 2032M134.047-34 1310.95 2032M276.838-34 1453.74 2032M419.628-34 1596.53 2032M562.418-34 1739.32 2032M705.209-34 1882.12 2032M848-34l1176.91 2066M990.79-34 2167.7 2032M1133.58-34l1176.91 2066M1276.37-34l1176.91 2066M1419.16-34l1176.91 2066"/></g><g stroke="#67C3D2" stroke-dasharray="3 8" stroke-linecap="round" opacity=".5"><path d="M-322.992 122.34H1691.96M-322.992 247.256H1691.96M-322.992 372.172H1691.96M-322.992 497.088H1691.96M-322.992 622.003H1691.96M-322.992 746.92H1691.96M-322.992 871.835H1691.96M-322.992 996.751H1691.96M-322.992 1121.67H1691.96M-322.992 1246.58H1691.96M-322.992 1371.5H1691.96M-322.992 1496.41H1691.96M-322.992 1621.33H1691.96M-322.992 1746.25H1691.96M-322.992 1871.16H1691.96"/></g></svg>